<svg width="200" height="200" viewBox="0 0 200 200" fill="none" xmlns="http://www.w3.org/2000/svg">
<circle cx="100" cy="100" r="100" fill="#255E3B"/>
<path d="M125.987 158H71.882C70.6916 158 69.7065 156.941 69.6321 155.577L65.1233 72.9102C65.085 72.1997 65.3037 71.4997 65.7298 70.9804C66.1558 70.4612 66.751 70.1667 67.3732 70.1667H130.496C131.118 70.1667 131.713 70.4612 132.139 70.9804C132.565 71.4997 132.784 72.1997 132.746 72.9102L128.237 155.577C128.162 156.941 127.177 158 125.987 158ZM73.9988 152.833H123.868L128.095 75.3333H69.7719L73.9988 152.833Z" fill="white"/>
<path d="M135.004 75.3333H62.8645C61.62 75.3333 60.6101 74.1786 60.6101 72.75V52.0833C60.6101 50.6547 61.62 49.5 62.8645 49.5H135.004C136.249 49.5 137.259 50.6547 137.259 52.0833V72.75C137.259 74.1786 136.249 75.3333 135.004 75.3333ZM65.1188 70.1667H132.75V54.6667H65.1188V70.1667Z" fill="white"/>
<path d="M130.541 54.6667C130.527 54.6641 130.511 54.6667 130.496 54.6667H67.3732C66.6495 54.6667 65.9687 54.2688 65.5449 53.5946C65.1211 52.9203 65.0061 52.0523 65.2338 51.267L69.7426 35.767C70.0514 34.7104 70.9103 34 71.882 34H125.987C126.959 34 127.818 34.7104 128.126 35.767L132.5 50.8046C132.687 51.1817 132.795 51.6183 132.795 52.0833C132.795 53.5119 131.785 54.6667 130.541 54.6667ZM70.5 49.5H127.369L124.364 39.1667H73.5074L70.5 49.5Z" fill="white"/>
<path d="M129.369 96H68.5004C67.256 96 66.246 94.8452 66.246 93.4167C66.246 91.9881 67.256 90.8333 68.5004 90.8333H129.369C130.613 90.8333 131.623 91.9881 131.623 93.4167C131.623 94.8452 130.613 96 129.369 96Z" fill="white"/>
<path d="M127.678 121.833H70.1912V127H127.678V121.833Z" fill="white"/>
<path d="M105.698 111.5H92.1713C90.9269 111.5 89.917 110.345 89.917 108.917C89.917 107.488 90.9269 106.333 92.1713 106.333H105.698C106.942 106.333 107.952 107.488 107.952 108.917C107.952 110.345 106.942 111.5 105.698 111.5Z" fill="white"/>
<path d="M38.3305 136.385C38.3305 140.502 39.3696 143.57 41.4479 145.588C43.5614 147.646 47.1367 148.736 52.1738 148.857V154.367C45.305 154.367 40.4088 152.854 37.4851 149.826C34.5967 146.799 33.1525 142.137 33.1525 135.84V115.436C33.1525 107.161 29.1017 102.943 21 102.781V97.9375C25.2974 97.8568 28.3972 96.8275 30.2993 94.8496C32.2014 92.8717 33.1525 89.8848 33.1525 85.8887V64.6973C33.1525 52.6283 39.4929 46.4727 52.1738 46.2305V51.6797C47.3128 51.8815 43.7903 53.0521 41.6064 55.1914C39.4225 57.3307 38.3305 60.4993 38.3305 64.6973V83.1641C38.3305 88.4115 37.5556 92.3268 36.0057 94.9102C34.4558 97.4935 31.9549 99.209 28.5028 100.057V100.541C31.9196 101.348 34.403 103.044 35.9528 105.627C37.538 108.17 38.3305 111.924 38.3305 116.889V136.385Z" fill="white"/>
<path d="M161.669 116.889C161.669 111.924 162.444 108.17 163.994 105.627C165.579 103.044 168.08 101.348 171.497 100.541V100.057C168.08 99.2493 165.579 97.554 163.994 94.9707C162.444 92.3874 161.669 88.4518 161.669 83.1641V64.6973C161.669 60.5397 160.578 57.3913 158.394 55.252C156.245 53.0723 152.722 51.8815 147.826 51.6797V46.2305C153.955 46.2305 158.658 47.8047 161.934 50.9531C165.21 54.0612 166.848 58.6426 166.848 64.6973V85.8887C166.848 89.9251 167.799 92.9323 169.701 94.9102C171.638 96.8477 174.738 97.8568 179 97.9375V102.781C170.898 102.943 166.848 107.161 166.848 115.436V135.84C166.848 142.096 165.386 146.738 162.462 149.766C159.574 152.833 154.695 154.367 147.826 154.367V148.857C152.793 148.777 156.333 147.707 158.446 145.648C160.595 143.63 161.669 140.542 161.669 136.385V116.889Z" fill="white"/>
</svg>
