<svg width="71" height="48" viewBox="0 0 71 48" fill="none" xmlns="http://www.w3.org/2000/svg">
<path d="M47 48H23C22.472 48 22.035 47.59 22.002 47.062L20.002 15.062C19.985 14.787 20.082 14.516 20.271 14.315C20.46 14.114 20.724 14 21 14H49C49.276 14 49.54 14.114 49.729 14.315C49.918 14.516 50.015 14.787 49.998 15.062L47.998 47.062C47.965 47.59 47.528 48 47 48ZM23.939 46H46.06L47.935 16H22.064L23.939 46Z" fill="black"/>
<path d="M51 16H19C18.448 16 18 15.553 18 15V7C18 6.447 18.448 6 19 6H51C51.552 6 52 6.447 52 7V15C52 15.553 51.552 16 51 16ZM20 14H50V8H20V14Z" fill="black"/>
<path d="M49.02 8C49.014 7.999 49.007 8 49 8H21C20.679 8 20.377 7.846 20.189 7.585C20.001 7.324 19.95 6.988 20.051 6.684L22.051 0.684C22.188 0.275 22.569 0 23 0H47C47.431 0 47.812 0.275 47.949 0.684L49.889 6.505C49.972 6.651 50.02 6.82 50.02 7C50.02 7.553 49.572 8 49.02 8ZM22.387 6H47.613L46.28 2H23.721L22.387 6Z" fill="black"/>
<path d="M48.5 24H21.5C20.948 24 20.5 23.553 20.5 23C20.5 22.447 20.948 22 21.5 22H48.5C49.052 22 49.5 22.447 49.5 23C49.5 23.553 49.052 24 48.5 24Z" fill="black"/>
<path d="M47.75 34H22.25V36H47.75V34Z" fill="black"/>
<path d="M38 30H32C31.448 30 31 29.553 31 29C31 28.447 31.448 28 32 28H38C38.552 28 39 28.447 39 29C39 29.553 38.552 30 38 30Z" fill="black"/>
<path d="M8.11719 39.6328C8.11719 41.2266 8.57812 42.4141 9.5 43.1953C10.4375 43.9922 12.0234 44.4141 14.2578 44.4609V46.5938C11.2109 46.5938 9.03906 46.0078 7.74219 44.8359C6.46094 43.6641 5.82031 41.8594 5.82031 39.4219V31.5234C5.82031 28.3203 4.02344 26.6875 0.429688 26.625V24.75C2.33594 24.7188 3.71094 24.3203 4.55469 23.5547C5.39844 22.7891 5.82031 21.6328 5.82031 20.0859V11.8828C5.82031 7.21094 8.63281 4.82812 14.2578 4.73438V6.84375C12.1016 6.92188 10.5391 7.375 9.57031 8.20312C8.60156 9.03125 8.11719 10.2578 8.11719 11.8828V19.0312C8.11719 21.0625 7.77344 22.5781 7.08594 23.5781C6.39844 24.5781 5.28906 25.2422 3.75781 25.5703V25.7578C5.27344 26.0703 6.375 26.7266 7.0625 27.7266C7.76562 28.7109 8.11719 30.1641 8.11719 32.0859V39.6328Z" fill="black"/>
<path d="M62.8281 32.0859C62.8281 30.1641 63.1719 28.7109 63.8594 27.7266C64.5625 26.7266 65.6719 26.0703 67.1875 25.7578V25.5703C65.6719 25.2578 64.5625 24.6016 63.8594 23.6016C63.1719 22.6016 62.8281 21.0781 62.8281 19.0312V11.8828C62.8281 10.2734 62.3438 9.05469 61.375 8.22656C60.4219 7.38281 58.8594 6.92188 56.6875 6.84375V4.73438C59.4062 4.73438 61.4922 5.34375 62.9453 6.5625C64.3984 7.76562 65.125 9.53906 65.125 11.8828V20.0859C65.125 21.6484 65.5469 22.8125 66.3906 23.5781C67.25 24.3281 68.625 24.7188 70.5156 24.75V26.625C66.9219 26.6875 65.125 28.3203 65.125 31.5234V39.4219C65.125 41.8438 64.4766 43.6406 63.1797 44.8125C61.8984 46 59.7344 46.5938 56.6875 46.5938V44.4609C58.8906 44.4297 60.4609 44.0156 61.3984 43.2188C62.3516 42.4375 62.8281 41.2422 62.8281 39.6328V32.0859Z" fill="black"/>
</svg>
